<svg id="Layer_1" data-name="Layer 1" xmlns="http://www.w3.org/2000/svg" viewBox="0 0 25.37 10.39"><defs><style>.cls-1{fill:none;stroke:#ea5168;stroke-linecap:round;stroke-linejoin:round;}</style></defs><title>convertible</title><g id="Icon"><circle class="cls-1" cx="6.68" cy="7.64" r="2.25"/><circle class="cls-1" cx="20.02" cy="7.64" r="2.25"/><path class="cls-1" d="M24.52,8.46h0a0.92,0.92,0,0,0,.63-0.24,1,1,0,0,0,.23-0.69V6.33a1.59,1.59,0,0,0-.79-1.58c-0.89-.6-6.09-1.17-7-1.25L12.67,1a0.15,0.15,0,0,0-.19,0l-0.23.26a0.2,0.2,0,0,0,0,.13,0.14,0.14,0,0,0,.07.1L15,3.25C6,2.64,6.52,2.72,2.63,3.16H2.33a0.87,0.87,0,0,0-.6,1V4.77A0.81,0.81,0,0,0,1.27,5,0.76,0.76,0,0,0,1,5.55,2,2,0,0,0,2.3,7.71L3.68,8" transform="translate(-0.52 -0.5)"/><path class="cls-1" d="M10.87,8.45h6.05" transform="translate(-0.52 -0.5)"/></g></svg>