<svg id="Layer_1" data-name="Layer 1" xmlns="http://www.w3.org/2000/svg" viewBox="0 0 24.79 10.49"><defs><style>.cls-1{fill:#ea5168;stroke-width:0.5px;}.cls-1,.cls-2{stroke:#ea5168;stroke-linecap:round;stroke-linejoin:round;}.cls-2{fill:none;}</style></defs><title>coupe</title><g id="Icon"><path class="cls-1" d="M6.24,2.59A5.36,5.36,0,0,1,7,2.43V3.26l-1.92-.1A11.16,11.16,0,0,1,6.24,2.59ZM11,2h0.88V3.43L7.71,3.26V2.35A11,11,0,0,1,11,2Zm6.71,1.69-5.1-.23V2l0.93,0.09A11.64,11.64,0,0,1,17.71,3.66Z" transform="translate(-0.5 -0.26)"/><circle class="cls-2" cx="5.32" cy="7.74" r="2.25"/><circle class="cls-2" cx="19.46" cy="7.74" r="2.25"/><path class="cls-2" d="M23.65,8H24.3a0.72,0.72,0,0,0,.49-0.7V5.91a0.7,0.7,0,0,0-.42-0.64,1.54,1.54,0,0,0-1.11-1.34c-1-.31-4-0.92-4.31-1a13.29,13.29,0,0,0-5.09-2,19.52,19.52,0,0,0-7.74.5,14.75,14.75,0,0,0-1.77.81,5.9,5.9,0,0,1-2.88.91,0.14,0.14,0,0,0-.14.14h0V4.88h0A0.71,0.71,0,0,0,1,5.47V6.86a0.7,0.7,0,0,0,.7.7L2.15,7.61h0" transform="translate(-0.5 -0.26)"/><line class="cls-2" x1="9.13" y1="7.74" x2="15.71" y2="7.74"/></g></svg>