<svg id="Layer_1" data-name="Layer 1" xmlns="http://www.w3.org/2000/svg" viewBox="0 0 27.59 13.88"><defs><style>.cls-1{fill:#ea5168;stroke-width:0.5px;}.cls-1,.cls-2{stroke:#ea5168;stroke-linecap:round;stroke-linejoin:round;}.cls-2{fill:none;}</style></defs><title>crossover</title><g id="Icon"><path class="cls-1" d="M12.8,4.07l-0.64-2a10.34,10.34,0,0,1,2,.25,9,9,0,0,1,3,1.42h0.06l0.67,0.53C16.42,4.19,14.45,4.13,12.8,4.07Z" transform="translate(-0.5 -0.22)"/><path class="cls-1" d="M11.24,4.06L6,3.88C6.9,3.33,7.86,2.37,8.78,2.2A6.68,6.68,0,0,1,10.6,2Z" transform="translate(-0.5 -0.22)"/><path class="cls-2" d="M25.65,11.35h1.08a0.65,0.65,0,0,0,.65-0.65l0.21-4.52c0-1-1.17-1.65-3.46-2C23.61,4.1,22.75,4,21.68,3.94a8.06,8.06,0,0,1-2.24-.65L18.86,3a15.27,15.27,0,0,0-4-1.81A15.32,15.32,0,0,0,8.53,1,13.71,13.71,0,0,0,5.44,2.18a10.32,10.32,0,0,1-2.84,1H1.66A0.66,0.66,0,0,0,1,3.83l0.3,6.89a0.66,0.66,0,0,0,.66.65H2.59" transform="translate(-0.5 -0.22)"/><line class="cls-2" x1="9.52" y1="11.13" x2="17.92" y2="11.13"/><circle class="cls-2" cx="5.7" cy="11.13" r="2.25"/><circle class="cls-2" cx="21.5" cy="11.13" r="2.25"/></g></svg>