<svg id="Layer_1" data-name="Layer 1" xmlns="http://www.w3.org/2000/svg" viewBox="0 0 25.19 11.02"><defs><style>.cls-1{fill:none;}.cls-1,.cls-2{stroke:#ea5168;stroke-linecap:round;stroke-linejoin:round;}.cls-2{fill:#ea5168;stroke-width:0.5px;}</style></defs><title>estate</title><g id="Icon"><path class="cls-1" d="M23.45,8.71h0.86A0.69,0.69,0,0,0,25,8h0V7a2,2,0,0,0-.7-1.5h0C23.09,4.42,20.64,4,19,3.85a5.07,5.07,0,0,1-2.16-1.17A7.06,7.06,0,0,0,12.25,1a33,33,0,0,0-8.91.68,0.06,0.06,0,0,0-.06,0,5.31,5.31,0,0,0-2,3.89,0.68,0.68,0,0,0-.47.65V8" transform="translate(-0.3 -0.44)"/><line class="cls-1" x1="8.42" y1="8.27" x2="15.34" y2="8.27"/><path class="cls-2" d="M4.49,2.63a35.94,35.94,0,0,1,4.87-.45v1.4H3.56A4,4,0,0,1,4.49,2.63Zm11.16,1H10.29V2.18h1.53a5.52,5.52,0,0,1,3.83,1.4V3.63Z" transform="translate(-0.3 -0.44)"/><circle class="cls-1" cx="4.56" cy="8.27" r="2.25"/><circle class="cls-1" cx="19.26" cy="8.27" r="2.25"/></g></svg>