<svg id="Layer_1" data-name="Layer 1" xmlns="http://www.w3.org/2000/svg" viewBox="0 0 24.74 12.75"><defs><style>.cls-1{fill:#ea5168;stroke-width:0.5px;}.cls-1,.cls-2{stroke:#ea5168;stroke-linecap:round;stroke-linejoin:round;}.cls-2{fill:none;}</style></defs><title>hatchback</title><g id="Icon"><path class="cls-1" d="M9.21,2.39H9.54V4.76l-3.8-.27C5.06,4.38,4.84,3.91,4.93,2.8L5,2.76A22.75,22.75,0,0,1,9.21,2.39ZM17.54,5.3l-7.07-.54V2.43a7.39,7.39,0,0,1,1.78.33A26.59,26.59,0,0,1,17.54,5.3Z" transform="translate(-0.31 -0.46)"/><circle class="cls-2" cx="4" cy="10" r="2.25"/><circle class="cls-2" cx="20.29" cy="10" r="2.25"/><path class="cls-2" d="M24.54,9.67s0.4-4.1-4.82-5.09a29.62,29.62,0,0,0-6.38-3.21c-3.15-1-9.27.12-9.53,0.17H3.72A9.24,9.24,0,0,0,1.57,6.63a0.8,0.8,0,0,0-.76.8V9.62" transform="translate(-0.31 -0.46)"/><path class="cls-2" d="M8.2,10.46h8.44" transform="translate(-0.31 -0.46)"/></g></svg>