<svg id="Layer_1" data-name="Layer 1" xmlns="http://www.w3.org/2000/svg" viewBox="0 0 24.27 13.07"><defs><style>.cls-1{fill:#ea5168;stroke-width:0.5px;}.cls-1,.cls-2{stroke:#ea5168;stroke-linecap:round;stroke-linejoin:round;}.cls-2{fill:none;}</style></defs><title>mpv</title><g id="Icon"><path class="cls-1" d="M15,5.57c0,0.25-.37.26-0.41,0.26H11.32c-0.19,0-.65,0-0.65-0.9V3a0.54,0.54,0,0,1,0-.35,0.52,0.52,0,0,1,.43-0.17h0.12a4.2,4.2,0,0,1,2.6,1.23A2.38,2.38,0,0,1,15,5.57Z" transform="translate(-0.5 -0.46)"/><path class="cls-1" d="M9.3,3.12A0.76,0.76,0,0,0,9.15,2.6a0.6,0.6,0,0,0-.48-0.18H7.54A0.67,0.67,0,0,0,7,2.6a0.56,0.56,0,0,0-.1.4V4.87a1,1,0,0,0,.21.74,0.66,0.66,0,0,0,.45.18H8.65a0.66,0.66,0,0,0,.5-0.17,1,1,0,0,0,.21-0.74C9.31,3.67,9.3,3.14,9.3,3.12Z" transform="translate(-0.5 -0.46)"/><path class="cls-1" d="M5.75,2.46a16.9,16.9,0,0,0-.07,3.31H3.22a0.63,0.63,0,0,1-.45-0.22,1.13,1.13,0,0,1-.22-0.79c0-1.26.82-2,2.31-2.28a3.07,3.07,0,0,1,.59,0Z" transform="translate(-0.5 -0.46)"/><circle class="cls-2" cx="4.75" cy="10.32" r="2.25"/><circle class="cls-2" cx="18.05" cy="10.32" r="2.25"/><path class="cls-2" d="M22.49,10.78h0.78a0.92,0.92,0,0,0,.64-0.31,1.81,1.81,0,0,0,.32-1.42C24,7.26,23.46,6.36,22.32,6.12s-4.55-.72-5-0.8C17,5,15.19,2,12,1.32S2.71,1.11,2.3,1.12a1.52,1.52,0,0,0-1,.29,0.92,0.92,0,0,0-.3.72V9.79a1,1,0,0,0,.2.69" transform="translate(-0.5 -0.46)"/><path class="cls-2" d="M9.33,10.78h5.26" transform="translate(-0.5 -0.46)"/></g></svg>