<svg id="Layer_1" data-name="Layer 1" xmlns="http://www.w3.org/2000/svg" viewBox="0 0 27.32 11.88"><defs><style>.cls-1{fill:#ea5168;stroke-width:0.5px;}.cls-1,.cls-2{stroke:#ea5168;stroke-linecap:round;stroke-linejoin:round;}.cls-2{fill:none;}</style></defs><title>saloon</title><g id="Icon"><path class="cls-1" d="M12.1,4L11.61,2.35a10.15,10.15,0,0,1,2,.25,9,9,0,0,1,3,1.42h0l0.21,0.14Z" transform="translate(-0.55 -0.5)"/><path class="cls-1" d="M11.26,4L6,3.78a10.42,10.42,0,0,1,3-1.3,6.81,6.81,0,0,1,1.79-.13Z" transform="translate(-0.55 -0.5)"/><path class="cls-2" d="M25.43,9.63h1.28A0.66,0.66,0,0,0,27.37,9V6.46c0-1-1.17-1.65-3.46-2-0.53-.08-1.38-0.16-2.45-0.24a8.06,8.06,0,0,1-2.24-.65l-0.58-.33a15.27,15.27,0,0,0-4-1.81A15.36,15.36,0,0,0,8.3,1.24,13.83,13.83,0,0,0,5.22,2.46a9.1,9.1,0,0,1-2.54,1H1.74a0.66,0.66,0,0,0-.69.63h0V9a0.66,0.66,0,0,0,.66.65H2.34" transform="translate(-0.55 -0.5)"/><path class="cls-2" d="M9.8,9.63h8.39" transform="translate(-0.55 -0.5)"/><circle class="cls-2" cx="5.43" cy="9.13" r="2.25"/><circle class="cls-2" cx="21.23" cy="9.13" r="2.25"/></g></svg>