<svg id="Layer_1" data-name="Layer 1" xmlns="http://www.w3.org/2000/svg" viewBox="0 0 22.01 12"><defs><style>.cls-1{fill:#ea5168;stroke-width:0.5px;}.cls-1,.cls-2{stroke:#ea5168;stroke-linecap:round;stroke-linejoin:round;}.cls-2{fill:none;}</style></defs><title>supermini</title><g id="Icon"><path class="cls-1" d="M15.4,5.19L8.86,4.72V2.53c0.33,0,1.47-.06,2.05,0C12.72,2.72,14.58,4.34,15.4,5.19Z" transform="translate(-0.43 -0.58)"/><path class="cls-1" d="M6.1,2.82a6.23,6.23,0,0,1,1.65-.29V4.72L4.14,4.54A3.26,3.26,0,0,1,6.1,2.82Z" transform="translate(-0.43 -0.58)"/><circle class="cls-2" cx="3.71" cy="9.41" r="2.09"/><circle class="cls-2" cx="17.82" cy="9.41" r="2.09"/><path class="cls-2" d="M21.93,9.24s0.46-4.05-4.8-4.33a13.53,13.53,0,0,0-5-3.47C9.2,0.5,3.95,1.66,3.71,1.72H3.63a8.65,8.65,0,0,0-2,4.72,0.74,0.74,0,0,0-.7.74V8.43" transform="translate(-0.43 -0.58)"/><line class="cls-2" x1="7.32" y1="9.41" x2="14.15" y2="9.41"/></g></svg>