<svg id="Layer_1" data-name="Layer 1" xmlns="http://www.w3.org/2000/svg" viewBox="0 0 17.07 18.21"><defs><style>.cls-1{fill:none;stroke:#ea5168;stroke-linecap:round;stroke-linejoin:round;}.cls-2{fill:#ea5168;}.cls-3{isolation:isolate;}.cls-4{fill:#ea5068;}</style></defs><title>diesel</title><g id="Icon"><line class="cls-1" x1="2.69" y1="8.91" x2="10.6" y2="8.91"/><path class="cls-2" d="M11.49,17.54a1.48,1.48,0,0,1,1.12.51H1.87A1.52,1.52,0,0,1,3,17.54h8.49m0-1H3A2.51,2.51,0,0,0,.49,19.05H14a2.5,2.5,0,0,0-2.49-2.51h0Z" transform="translate(-0.49 -0.84)"/><path class="cls-2" d="M10,1.87a0.9,0.9,0,0,1,.9.9V16.65H3.55V2.74a0.9,0.9,0,0,1,.9-0.9H10m0-1H4.45a1.9,1.9,0,0,0-1.9,1.9V17.65h9.39V2.74A1.9,1.9,0,0,0,10,.87v0Z" transform="translate(-0.49 -0.84)"/><path class="cls-2" d="M9.3,4V5.45H5.19V4H9.3m1-1H4.19V6.45H10.3V3Z" transform="translate(-0.49 -0.84)"/><path class="cls-1" d="M11.94,5.87h0.34A1.71,1.71,0,0,1,14,7.58h0v5.2a1.53,1.53,0,0,0,1.53,1.53h0a1.52,1.52,0,0,0,1.53-1.51s0,0,0,0V4.63a1.7,1.7,0,0,0-.8-1.45L13.61,1.47" transform="translate(-0.49 -0.84)"/><path class="cls-1" d="M15.22,2.55V4.17a1.76,1.76,0,0,0,.93,1.56l0.91,0.49" transform="translate(-0.49 -0.84)"/><g class="cls-3"><path class="cls-4" d="M5.18,15.09V11.7a0.53,0.53,0,0,1,.55-0.57H6.87a2.16,2.16,0,0,1,2.44,2.25,2.21,2.21,0,0,1-2.47,2.28H5.75A0.57,0.57,0,0,1,5.18,15.09Zm1.65-.32a1.3,1.3,0,0,0,1.45-1.39A1.29,1.29,0,0,0,6.84,12H6.2v2.77H6.83Z" transform="translate(-0.49 -0.84)"/></g></g></svg>