<svg id="Layer_1" data-name="Layer 1" xmlns="http://www.w3.org/2000/svg" viewBox="0 0 17.07 18.21"><defs><style>.cls-1{fill:#ea5168;}.cls-2{fill:none;}.cls-2,.cls-3{stroke:#ea5168;stroke-linecap:round;stroke-linejoin:round;}.cls-3{fill:#ea5068;}</style></defs><title>LeaseLoCo-Icons_Hybrid</title><g id="Icon"><path class="cls-1" d="M11.22,16.86a1.48,1.48,0,0,1,1.12.51H1.6a1.52,1.52,0,0,1,1.13-.51h8.49m0-1H2.73A2.51,2.51,0,0,0,.22,18.37h13.5a2.5,2.5,0,0,0-2.49-2.51h0Z" transform="translate(-0.22 -0.16)"/><path class="cls-1" d="M9.77,1.19a0.9,0.9,0,0,1,.9.9V16H3.28V2.06a0.9,0.9,0,0,1,.9-0.9H9.77m0-1H4.18a1.9,1.9,0,0,0-1.9,1.9V17h9.39V2.06A1.9,1.9,0,0,0,9.77.19v0Z" transform="translate(-0.22 -0.16)"/><path class="cls-1" d="M9,3.28V4.77H4.92V3.28H9m1-1H3.92V5.77H10V2.28Z" transform="translate(-0.22 -0.16)"/><path class="cls-2" d="M11.67,5.19H12A1.71,1.71,0,0,1,13.72,6.9h0v5.2a1.53,1.53,0,0,0,1.53,1.53h0a1.52,1.52,0,0,0,1.53-1.51s0,0,0,0V3.95A1.7,1.7,0,0,0,16,2.5L13.34,0.79" transform="translate(-0.22 -0.16)"/><path class="cls-2" d="M15,1.87V3.49A1.76,1.76,0,0,0,15.88,5l0.91,0.49" transform="translate(-0.22 -0.16)"/><polygon class="cls-3" points="8.59 10.41 6.99 10.4 7.9 7.74 5.07 11.4 6.67 11.41 5.75 14.06 8.59 10.41"/></g></svg>