<svg id="Layer_1" data-name="Layer 1" xmlns="http://www.w3.org/2000/svg" viewBox="0 0 17.07 18.21"><defs><style>.cls-1{fill:none;stroke:#ea5168;stroke-linecap:round;stroke-linejoin:round;}.cls-2{fill:#ea5168;}</style></defs><title>hydrogen</title><g id="Icon"><line class="cls-1" x1="2.69" y1="8.91" x2="10.6" y2="8.91"/><path class="cls-2" d="M11.3,16.88a1.48,1.48,0,0,1,1.12.51H1.68a1.52,1.52,0,0,1,1.13-.51H11.3m0-1H2.81A2.51,2.51,0,0,0,.3,18.39H13.8a2.5,2.5,0,0,0-2.49-2.51h0Z" transform="translate(-0.3 -0.18)"/><path class="cls-2" d="M9.85,1.21a0.9,0.9,0,0,1,.9.9V16H3.36V2.08a0.9,0.9,0,0,1,.9-0.9H9.85m0-1H4.26a1.9,1.9,0,0,0-1.9,1.9V17h9.39V2.08A1.9,1.9,0,0,0,9.85.21v0Z" transform="translate(-0.3 -0.18)"/><path class="cls-2" d="M9.11,3.3V4.79H5V3.3H9.11m1-1H4V5.79h6.11V2.3Z" transform="translate(-0.3 -0.18)"/><path class="cls-1" d="M11.75,5.21h0.34A1.71,1.71,0,0,1,13.8,6.92h0v5.2a1.53,1.53,0,0,0,1.53,1.53h0a1.52,1.52,0,0,0,1.53-1.51s0,0,0,0V4a1.7,1.7,0,0,0-.8-1.45L13.42,0.81" transform="translate(-0.3 -0.18)"/><path class="cls-1" d="M15,1.89V3.51A1.76,1.76,0,0,0,16,5.07l0.91,0.49" transform="translate(-0.3 -0.18)"/><line class="cls-1" x1="5.3" y1="10.72" x2="5.3" y2="14.3"/><line class="cls-1" x1="7.99" y1="10.72" x2="7.99" y2="14.3"/><line class="cls-1" x1="7.99" y1="12.51" x2="5.3" y2="12.51"/></g></svg>
