<svg id="Layer_1" data-name="Layer 1" xmlns="http://www.w3.org/2000/svg" viewBox="0 0 17.07 18.21"><defs><style>.cls-1{fill:none;stroke:#ea5168;stroke-linecap:round;stroke-linejoin:round;}.cls-2{fill:#ea5168;}.cls-3{isolation:isolate;}.cls-4{fill:#ea5068;}</style></defs><title>petrol</title><g id="Icon"><line class="cls-1" x1="2.69" y1="8.91" x2="10.6" y2="8.91"/><path class="cls-2" d="M11.26,17.12a1.48,1.48,0,0,1,1.12.51H1.64a1.52,1.52,0,0,1,1.13-.51h8.49m0-1H2.77A2.51,2.51,0,0,0,.26,18.63h13.5a2.5,2.5,0,0,0-2.49-2.51h0Z" transform="translate(-0.26 -0.42)"/><path class="cls-2" d="M9.81,1.45a0.9,0.9,0,0,1,.9.9V16.23H3.32V2.32a0.9,0.9,0,0,1,.9-0.9H9.81m0-1H4.22a1.9,1.9,0,0,0-1.9,1.9V17.23h9.39V2.32A1.9,1.9,0,0,0,9.81.45v0Z" transform="translate(-0.26 -0.42)"/><path class="cls-2" d="M9.07,3.54V5H5V3.54H9.07m1-1H4V6h6.11V2.54Z" transform="translate(-0.26 -0.42)"/><path class="cls-1" d="M11.71,5.45h0.34a1.71,1.71,0,0,1,1.71,1.71h0v5.2a1.53,1.53,0,0,0,1.53,1.53h0a1.52,1.52,0,0,0,1.53-1.51s0,0,0,0V4.21A1.7,1.7,0,0,0,16,2.76L13.38,1" transform="translate(-0.26 -0.42)"/><path class="cls-1" d="M15,2.13V3.75a1.76,1.76,0,0,0,.93,1.56L16.83,5.8" transform="translate(-0.26 -0.42)"/><g class="cls-3"><path class="cls-4" d="M5.45,14.79V11.28A0.51,0.51,0,0,1,6,10.7H7.17c1.2,0,1.86.53,1.86,1.53S8.4,13.76,7.17,13.76H6.48v1a0.42,0.42,0,0,1-.45.47H5.88A0.41,0.41,0,0,1,5.45,14.79Zm1-1.81H7.16a0.75,0.75,0,1,0,0-1.48H6.47V13Z" transform="translate(-0.26 -0.42)"/></g></g></svg>