<svg id="Layer_1" data-name="Layer 1" xmlns="http://www.w3.org/2000/svg" viewBox="0 0 19.54 17.25"><defs><style>.cls-1{fill:#ea5168;}.cls-2{fill:none;stroke:#ea5168;stroke-linecap:round;stroke-linejoin:round;}</style></defs><title>engine</title><g id="Icon"><path class="cls-1" d="M9.86,10a3.17,3.17,0,1,1-3.17,3.17h0A3.17,3.17,0,0,1,9.86,10m0-1A4.17,4.17,0,1,0,14,13.19h0A4.16,4.16,0,0,0,9.88,9h0Z" transform="translate(-0.09 -0.12)"/><line class="cls-2" x1="13.6" y1="12.26" x2="16.67" y2="9.2"/><line class="cls-2" x1="13.65" y1="6.17" x2="10.49" y2="9.33"/><path class="cls-2" d="M11.44,2.21a1.59,1.59,0,1,0-1.6,1.58h0A1.59,1.59,0,0,0,11.44,2.21Z" transform="translate(-0.09 -0.12)"/><line class="cls-2" x1="11.35" y1="2.04" x2="11.84" y2="5.8"/><line class="cls-2" x1="8.18" y1="2.1" x2="7.7" y2="5.8"/><path class="cls-2" d="M13.69,5.16h0a0.75,0.75,0,0,1,1.06,0l3.14,3.15a0.74,0.74,0,0,1,0,1h0a0.75,0.75,0,0,1-1.06,0L13.69,6.22a0.74,0.74,0,0,1,0-1h0Z" transform="translate(-0.09 -0.12)"/><path class="cls-2" d="M11.89,12.49H11.43a1.7,1.7,0,0,0-.88-0.87V11.16a0.45,0.45,0,0,0-.44-0.45H9.61a0.45,0.45,0,0,0-.45.45h0v0.46a1.68,1.68,0,0,0-.87.87H7.83a0.45,0.45,0,0,0-.45.45h0v0.5a0.45,0.45,0,0,0,.45.44H8.29a1.7,1.7,0,0,0,.87.88v0.46a0.45,0.45,0,0,0,.45.45h0.5a0.45,0.45,0,0,0,.44-0.45V14.76a1.72,1.72,0,0,0,.88-0.88h0.46a0.45,0.45,0,0,0,.45-0.44V12.92A0.45,0.45,0,0,0,11.89,12.49Z" transform="translate(-0.09 -0.12)"/><line class="cls-2" x1="19.04" y1="6.87" x2="16.14" y2="3.97"/><line class="cls-2" x1="16.35" y1="6.54" x2="17.53" y2="5.36"/><line class="cls-2" x1="5.93" y1="12.26" x2="2.87" y2="9.2"/><line class="cls-2" x1="5.89" y1="6.17" x2="9.05" y2="9.33"/><path class="cls-2" d="M6,5.16H6A0.75,0.75,0,0,0,5,5.16L1.84,8.31a0.74,0.74,0,0,0,0,1h0a0.75,0.75,0,0,0,1.06,0L6,6.22A0.75,0.75,0,0,0,6,5.16Z" transform="translate(-0.09 -0.12)"/><line class="cls-2" x1="0.5" y1="6.87" x2="3.4" y2="3.97"/><line class="cls-2" x1="3.19" y1="6.54" x2="2.01" y2="5.36"/><path class="cls-1" d="M9.86,12.6a0.59,0.59,0,1,0,.59.59,0.59,0.59,0,0,0-.59-0.59h0Z" transform="translate(-0.09 -0.12)"/></g></svg>