<svg xmlns="http://www.w3.org/2000/svg" viewBox="0 0 50 50"><defs><style>.cls-1{fill:#eb5564;}</style></defs><title>LeaseLoCo-Score-Icons</title><g id="Logos"><path class="cls-1" d="M45.69,42.17a1.56,1.56,0,0,0-.16-.2L40,36.67a21,21,0,1,0-29.72,2.09,2.35,2.35,0,0,0,3.09-3.54,16.34,16.34,0,0,1-5.4-9.81h2.53a1,1,0,1,0,0-2H7.76c0-.16,0-.32,0-.48A16.24,16.24,0,0,1,11.27,12.8l2,1.95a1,1,0,0,0,1.43,0,1,1,0,0,0,0-1.43l-2-2A16.32,16.32,0,0,1,23.29,6.61v2.3a1,1,0,1,0,2,0V6.64a16.29,16.29,0,0,1,10.44,4.88l-1.9,1.9a1,1,0,0,0,0,1.43,1,1,0,0,0,.72.29,1,1,0,0,0,.71-.29l1.79-1.8a16.23,16.23,0,0,1,3.33,9.86c0,.16,0,.32,0,.48H37.64a1,1,0,0,0,0,2h2.55A16.36,16.36,0,0,1,35.08,35l-.1.11-.16.18a1.88,1.88,0,0,0-.12.18,1.59,1.59,0,0,0-.13.22,1.08,1.08,0,0,0-.08.19,2.25,2.25,0,0,0-.08.24,1.46,1.46,0,0,0,0,.2l0,.26s0,.07,0,.1,0,.07,0,.11a2.11,2.11,0,0,0,0,.25l0,.21a2.17,2.17,0,0,0,.07.24,1.19,1.19,0,0,0,.08.2,2.12,2.12,0,0,0,.11.21,1.37,1.37,0,0,0,.13.2l0,.09,6.24,8.76a.46.46,0,0,0,.07.07,3.44,3.44,0,0,0,.27.27l.14.12a3.3,3.3,0,0,0,2.08.74,3.33,3.33,0,0,0,2.07-5.94Z"/></g></svg>