<svg id="Layer_1" data-name="Layer 1" xmlns="http://www.w3.org/2000/svg" viewBox="0 0 19.62 19.65"><defs><style>.cls-1{fill:#ea5168;}.cls-2{fill:none;stroke:#ea5168;stroke-linecap:round;stroke-linejoin:round;}</style></defs><title>alloys</title><g id="Icon"><path class="cls-1" d="M10.37,1.43A8.81,8.81,0,0,1,11,19H10.37a8.7,8.7,0,0,1-6.22-2.58,8.81,8.81,0,0,1,6.22-15m0-1A9.81,9.81,0,1,0,17.31,3.3,9.81,9.81,0,0,0,10.37.45v0Z" transform="translate(-0.59 -0.42)"/><path class="cls-1" d="M10.37,4.86a5.37,5.37,0,0,1,0,10.74A5.3,5.3,0,0,1,6.58,14a5.37,5.37,0,0,1,3.79-9.16m0-1a6.37,6.37,0,1,0,6.37,6.37A6.37,6.37,0,0,0,10.37,3.86Z" transform="translate(-0.59 -0.42)"/><path class="cls-1" d="M10.37,9.68a0.59,0.59,0,0,1,.4.16,0.57,0.57,0,0,1-.4,1A0.52,0.52,0,0,1,10,10.66a0.56,0.56,0,0,1,.39-0.95m0-1a1.56,1.56,0,0,0-1.1,2.66,1.52,1.52,0,0,0,1.1.46,1.57,1.57,0,0,0,1.11-2.67A1.59,1.59,0,0,0,10.37,8.72Z" transform="translate(-0.59 -0.42)"/><path class="cls-2" d="M11.35,15.85v-2A2.64,2.64,0,0,1,14,11.21H16" transform="translate(-0.59 -0.42)"/><path class="cls-2" d="M4.72,11.22h2a2.64,2.64,0,0,1,2.64,2.64v2" transform="translate(-0.59 -0.42)"/><path class="cls-2" d="M9.39,4.59v2A2.64,2.64,0,0,1,6.76,9.24h-2" transform="translate(-0.59 -0.42)"/><path class="cls-2" d="M16,9.26H14a2.64,2.64,0,0,1-2.65-2.63s0,0,0,0v-2" transform="translate(-0.59 -0.42)"/><path class="cls-2" d="M18.07,9.51a7.07,7.07,0,0,0-7-7" transform="translate(-0.59 -0.42)"/></g></svg>