<svg id="Layer_1" data-name="Layer 1" xmlns="http://www.w3.org/2000/svg" viewBox="0 0 16.68 18.8"><defs><style>.cls-1{fill:none;stroke:#ea5168;stroke-linecap:round;stroke-linejoin:round;}.cls-2{fill:#ea5168;}</style></defs><title>climate-control</title><g id="Icon"><line class="cls-1" x1="2.19" y1="9.45" x2="3.37" y2="9.45"/><line class="cls-1" x1="2.19" y1="7.37" x2="3.37" y2="7.37"/><line class="cls-1" x1="2.19" y1="5.29" x2="3.37" y2="5.29"/><line class="cls-1" x1="4.51" y1="3.07" x2="4.51" y2="14.26"/><path class="cls-1" d="M5.15,0.91h0A2.32,2.32,0,0,0,2.82,3.22h0v8.22a4,4,0,1,0,4.64,0V3.21" transform="translate(-0.64 -0.41)"/><path class="cls-1" d="M5.15,0.91h0A2.32,2.32,0,0,1,7.47,3.23h0" transform="translate(-0.64 -0.41)"/><path class="cls-1" d="M16.82,17.2a1.4,1.4,0,0,1-1.38,1.41h-2a2,2,0,0,1-2-2s0,0,0-.06V13.27A2,2,0,0,1,13.4,11.2h2a1.4,1.4,0,0,1,1.42,1.38s0,0,0,0" transform="translate(-0.64 -0.41)"/><circle class="cls-2" cx="9.9" cy="9.86" r="0.93"/><path class="cls-2" d="M5.15,17.7a3,3,0,0,0,3-3H6.95a1.81,1.81,0,0,1-3.61,0H2.1A3.05,3.05,0,0,0,5.15,17.7Z" transform="translate(-0.64 -0.41)"/></g></svg>