<svg id="Layer_1" data-name="Layer 1" xmlns="http://www.w3.org/2000/svg" viewBox="0 0 18.89 16.54"><defs><style>.cls-1{fill:none;stroke:#ea5168;stroke-linecap:round;stroke-linejoin:round;}</style></defs><title>cruise-control</title><g id="Icon"><path class="cls-1" d="M6.4,14.52L4.75,16.17h0a7.81,7.81,0,0,1-2.38-5.74A7.84,7.84,0,0,1,4.75,4.68h0A7.85,7.85,0,0,1,10.51,2.3a7.84,7.84,0,0,1,5.74,2.38h0a7.83,7.83,0,0,1,2.37,5.74,7.81,7.81,0,0,1-2.38,5.74L14.6,14.51M8.91,8.85h0a2.22,2.22,0,0,0,0,3.14l0,0a2.23,2.23,0,1,0,1.6-3.81,2.17,2.17,0,0,0-1.58.65L4.75,4.68m5.74,0V2.3m5.79,8.13h2.33m-4-4.09,1.66-1.65M4.51,0.81V4.42H0.93L2.11,3.24,0.73,1.86,2,0.63,3.33,2Zm0.17,9.62H2.37" transform="translate(-0.23 -0.13)"/></g></svg>