<svg id="Layer_1" data-name="Layer 1" xmlns="http://www.w3.org/2000/svg" viewBox="0 0 22.94 14.56"><defs><style>.cls-1{fill:none;stroke:#ea5168;stroke-linecap:round;stroke-linejoin:round;}</style></defs><title>dab</title><g id="Icon"><rect class="cls-1" x="0.5" y="0.5" width="21.94" height="13.56" rx="3" ry="3"/><rect class="cls-1" x="3.89" y="2.5" width="15.16" height="3.31"/><path class="cls-1" d="M8.38,10.06a2.09,2.09,0,1,0-2.09,2.09,2.09,2.09,0,0,0,2.09-2.09h0Z" transform="translate(-0.2 -0.08)"/><path class="cls-1" d="M7.13,10.06a0.84,0.84,0,0,0-.84-0.84h0" transform="translate(-0.2 -0.08)"/><path class="cls-1" d="M19.14,10.06A2.09,2.09,0,1,0,17,12.15a2.09,2.09,0,0,0,2.09-2.09h0Z" transform="translate(-0.2 -0.08)"/><path class="cls-1" d="M17.89,10.06A0.84,0.84,0,0,0,17,9.22h0" transform="translate(-0.2 -0.08)"/><line class="cls-1" x1="9.97" y1="9.98" x2="10.78" y2="9.98"/><line class="cls-1" x1="12.17" y1="9.98" x2="12.97" y2="9.98"/><line class="cls-1" x1="5.79" y1="4.15" x2="6.6" y2="4.15"/><line class="cls-1" x1="7.99" y1="4.15" x2="8.79" y2="4.15"/><line class="cls-1" x1="17.15" y1="4.15" x2="16.35" y2="4.15"/><line class="cls-1" x1="14.96" y1="4.15" x2="14.15" y2="4.15"/></g></svg>