<svg id="Layer_1" data-name="Layer 1" xmlns="http://www.w3.org/2000/svg" viewBox="0 0 16.71 18.84"><defs><style>.cls-1{fill:none;stroke:#ea5168;stroke-linecap:round;stroke-linejoin:round;}</style></defs><title>heated-seats</title><g id="Icon"><path class="cls-1" d="M2.65,14.45L2.4,13.24a8.39,8.39,0,0,1,.14-3.92S3.25,7.18,3.68,6.21,5,4.94,8.7,4.94s4.62,0.29,5,1.28,1.14,3.11,1.14,3.11A8.39,8.39,0,0,1,15,13.25l-0.24,1.21" transform="translate(-0.33 -0.58)"/><path class="cls-1" d="M11.39,3.66H6a0.64,0.64,0,0,1-.62-0.79l0.2-.79a1.27,1.27,0,0,1,1.24-1h3.71a1.27,1.27,0,0,1,1.23,1L12,2.87a0.64,0.64,0,0,1-.47.77Z" transform="translate(-0.33 -0.58)"/><path class="cls-1" d="M15.54,14.45H15.12a1,1,0,0,0-.67.28l-1,1a16.48,16.48,0,0,0-4.78-.64,17.89,17.89,0,0,0-4.78.64l-1-1a1,1,0,0,0-.68-0.28H1.84a1,1,0,0,0-1,1s0,0.06,0,.09L1,16.4A3,3,0,0,0,1.73,18h0a2.94,2.94,0,0,0,2.13.92h9.68A2.94,2.94,0,0,0,15.66,18h0a2.87,2.87,0,0,0,.77-1.6l0.11-.86a1,1,0,0,0-.91-1.09H15.54Z" transform="translate(-0.33 -0.58)"/><path class="cls-1" d="M5.2,13.51c-0.32-4.15.59-5.76,0.59-5.76,0-.33.84-0.9,2.91-0.9s2.89,0.57,2.92.9c0,0,.85,1.72.59,5.76" transform="translate(-0.33 -0.58)"/><line class="cls-1" x1="6.77" y1="3.08" x2="6.77" y2="4.35"/><line class="cls-1" x1="9.96" y1="3.08" x2="9.96" y2="4.35"/><path class="cls-1" d="M12.85,15.7a9.44,9.44,0,0,1,0,3.2" transform="translate(-0.33 -0.58)"/><path class="cls-1" d="M4.7,15.7a9.15,9.15,0,0,0,0,3.2" transform="translate(-0.33 -0.58)"/></g></svg>