<svg id="Layer_1" data-name="Layer 1" xmlns="http://www.w3.org/2000/svg" viewBox="0 0 12.24 15.78"><defs><style>.cls-1{fill:#ea5168;}</style></defs><title>leather-seats</title><g id="Icon"><path class="cls-1" d="M7,1.69A3.85,3.85,0,0,0,8.33,3.45a3.8,3.8,0,0,0,2.13.61,5.34,5.34,0,0,0,1-.09L11.63,4.3A8,8,0,0,0,9.69,9a7.63,7.63,0,0,0,1.83,5.08l-0.21.22a6.21,6.21,0,0,0-1.57-.21,4.84,4.84,0,0,0-3,1,4.81,4.81,0,0,0-2.95-1,6.37,6.37,0,0,0-1.58.21L2,14.09A7.58,7.58,0,0,0,3.83,9,8,8,0,0,0,1.89,4.25l0.23-.33a5.26,5.26,0,0,0,1,.09A3.77,3.77,0,0,0,5.24,3.4,3.72,3.72,0,0,0,6.62,1.69H7m0.75-1H5.86A3,3,0,0,1,4.67,2.62a2.77,2.77,0,0,1-1.56.44,5.15,5.15,0,0,1-1.38-.21,15.48,15.48,0,0,0-1,1.57,7.23,7.23,0,0,1,2.2,4.63,7.06,7.06,0,0,1-2.17,5.1C1.43,14.91,1.84,15.33,2,15.51a5.08,5.08,0,0,1,1.85-.36,3.84,3.84,0,0,1,3,1.32,3.86,3.86,0,0,1,3-1.32,5.13,5.13,0,0,1,1.85.36c0.18-.18.6-0.6,1.26-1.36a7,7,0,0,1-2.16-5.1A7.23,7.23,0,0,1,13,4.42a12.41,12.41,0,0,0-1-1.57,5,5,0,0,1-1.37.21A2.78,2.78,0,0,1,9,2.62,3,3,0,0,1,7.71.69h0Z" transform="translate(-0.73 -0.69)"/></g></svg>