<svg id="Layer_1" data-name="Layer 1" xmlns="http://www.w3.org/2000/svg" viewBox="0 0 12.8 17.47"><defs><style>.cls-1{fill:#ea5168;}.cls-2{fill:none;stroke:#ea5168;stroke-linecap:round;stroke-linejoin:round;}</style></defs><title>panoramic-roof</title><g id="Icon"><path class="cls-1" d="M6.86,1.54a7.47,7.47,0,0,1,1.49.16,2.57,2.57,0,0,1,2,2.5V15.92a0.85,0.85,0,0,1-.72.85l-0.51.08A15.8,15.8,0,0,1,6.84,17a15.66,15.66,0,0,1-2.27-.17l-0.52-.08a0.86,0.86,0,0,1-.72-0.85V4.21a2.57,2.57,0,0,1,2-2.5,7.37,7.37,0,0,1,1.48-.16m0-1A8.09,8.09,0,0,0,5.12.73,3.56,3.56,0,0,0,2.35,4.21V15.92a1.86,1.86,0,0,0,1.57,1.84l0.51,0.08A16.56,16.56,0,0,0,6.86,18a16.46,16.46,0,0,0,2.43-.18l0.51-.08a1.85,1.85,0,0,0,1.57-1.84V4.21A3.55,3.55,0,0,0,8.55.73,8,8,0,0,0,6.86.55H6.81Z" transform="translate(-0.46 -0.55)"/><path class="cls-2" d="M9.11,13.68V15a0.42,0.42,0,0,1-.33.4,10.33,10.33,0,0,1-3.84,0A0.4,0.4,0,0,1,4.62,15V13.68l0.13-2.14V10.8c-0.06-.71-0.16-1.87-0.23-2.58L4.28,6.84A0.68,0.68,0,0,1,4.7,6.08a7.61,7.61,0,0,1,2.13-.29A7.51,7.51,0,0,1,9,6.09a0.68,0.68,0,0,1,.47.77L9.23,8.21c-0.06.73-.17,1.91-0.23,2.64v0.72Z" transform="translate(-0.46 -0.55)"/><path class="cls-1" d="M5.29,1.21V1.83a1.41,1.41,0,0,1-1.4,1.38H3" transform="translate(-0.46 -0.55)"/><path class="cls-1" d="M8.46,1.21V1.83a1.4,1.4,0,0,0,1.4,1.38H10.7" transform="translate(-0.46 -0.55)"/><path class="cls-2" d="M11,6.31L12.33,7.2a0.84,0.84,0,0,1,.43.74V8.47" transform="translate(-0.46 -0.55)"/><path class="cls-2" d="M2.59,6.42L1.4,7.21A0.85,0.85,0,0,0,1,7.95V8.48" transform="translate(-0.46 -0.55)"/></g></svg>