<svg id="Layer_1" data-name="Layer 1" xmlns="http://www.w3.org/2000/svg" viewBox="0 0 22.9 19.35"><defs><style>.cls-1{fill:#ea5168;}.cls-2{fill:none;stroke:#ea5168;stroke-linecap:round;stroke-linejoin:round;}</style></defs><title>parking-sensors</title><g id="Icon"><path class="cls-1" d="M11.81,3.42A5.84,5.84,0,0,1,13,3.55a1.91,1.91,0,0,1,1.51,1.86V15.57a0.51,0.51,0,0,1-.44.51l-0.41.07a12.1,12.1,0,0,1-3.67,0l-0.41-.07a0.51,0.51,0,0,1-.44-0.51V5.41a1.91,1.91,0,0,1,1.53-1.86,5.82,5.82,0,0,1,1.17-.13m0-1a6.48,6.48,0,0,0-1.38.15,2.9,2.9,0,0,0-2.3,2.84V15.57a1.52,1.52,0,0,0,1.28,1.5l0.42,0.06a12.39,12.39,0,0,0,4,0l0.42-.06a1.52,1.52,0,0,0,1.28-1.5V5.41a2.9,2.9,0,0,0-2.31-2.84,6.34,6.34,0,0,0-1.38-.15h0Z" transform="translate(-0.38 -0.18)"/><path class="cls-2" d="M9.89,13.48v1.33a0.34,0.34,0,0,0,.28.34,8.88,8.88,0,0,0,3.33,0,0.34,0.34,0,0,0,.28-0.34V13.48" transform="translate(-0.38 -0.18)"/><path class="cls-2" d="M13.55,12v-0.9c0-.59.14-1.56,0.19-2.16l0.19-1.09a0.55,0.55,0,0,0-.39-0.62A6.31,6.31,0,0,0,11.82,7a6.16,6.16,0,0,0-1.74.23,0.55,0.55,0,0,0-.37.62L9.9,9C10,9.56,10,10.5,10.09,11.09V12" transform="translate(-0.38 -0.18)"/><path class="cls-1" d="M10.53,2.93V3.44A1.14,1.14,0,0,1,9.4,4.59H8.66" transform="translate(-0.38 -0.18)"/><path class="cls-1" d="M13.12,2.93V3.44a1.14,1.14,0,0,0,1.14,1.14H15" transform="translate(-0.38 -0.18)"/><path class="cls-2" d="M15.21,7.41l1.07,0.72a0.71,0.71,0,0,1,.35.61V9.18" transform="translate(-0.38 -0.18)"/><path class="cls-2" d="M8.34,7.51l-1,.63A0.71,0.71,0,0,0,7,8.74V9.18" transform="translate(-0.38 -0.18)"/><polyline class="cls-2" points="19.1 17.29 20.84 17.29 20.84 15.54"/><polyline class="cls-2" points="22.4 16.24 22.4 18.85 19.8 18.85"/><line class="cls-2" x1="17.94" y1="18.84" x2="17.39" y2="18.84"/><line class="cls-2" x1="22.4" y1="14.38" x2="22.4" y2="13.83"/><polyline class="cls-2" points="19.1 2.06 20.84 2.06 20.84 3.81"/><polyline class="cls-2" points="22.4 3.11 22.4 0.5 19.8 0.5"/><line class="cls-2" x1="17.94" y1="0.51" x2="17.39" y2="0.51"/><line class="cls-2" x1="22.4" y1="4.98" x2="22.4" y2="5.53"/><polyline class="cls-2" points="3.81 17.29 2.06 17.29 2.06 15.54"/><polyline class="cls-2" points="0.5 16.24 0.5 18.85 3.11 18.85"/><line class="cls-2" x1="4.96" y1="18.84" x2="5.51" y2="18.84"/><line class="cls-2" x1="0.5" y1="14.38" x2="0.5" y2="13.83"/><polyline class="cls-2" points="3.81 2.06 2.06 2.06 2.06 3.81"/><polyline class="cls-2" points="0.5 3.11 0.5 0.5 3.11 0.5"/><line class="cls-2" x1="4.96" y1="0.51" x2="5.51" y2="0.51"/><line class="cls-2" x1="0.5" y1="4.98" x2="0.5" y2="5.53"/></g></svg>