<svg id="Layer_1" data-name="Layer 1" xmlns="http://www.w3.org/2000/svg" viewBox="0 0 22.94 18.34"><defs><style>.cls-1{fill:none;stroke:#ea5168;stroke-linecap:round;stroke-linejoin:round;}</style></defs><title>park-assist-camera</title><g id="Icon"><polyline class="cls-1" points="19.14 16.29 20.89 16.29 20.89 14.54"/><polyline class="cls-1" points="22.44 15.24 22.44 17.84 19.84 17.84"/><line class="cls-1" x1="17.98" y1="17.84" x2="17.43" y2="17.84"/><line class="cls-1" x1="22.44" y1="13.37" x2="22.44" y2="12.82"/><polyline class="cls-1" points="19.14 2.06 20.89 2.06 20.89 3.81"/><polyline class="cls-1" points="22.44 3.11 22.44 0.5 19.84 0.5"/><line class="cls-1" x1="17.98" y1="0.51" x2="17.43" y2="0.51"/><line class="cls-1" x1="22.44" y1="4.97" x2="22.44" y2="5.52"/><polyline class="cls-1" points="3.8 16.29 2.06 16.29 2.06 14.54"/><polyline class="cls-1" points="0.5 15.24 0.5 17.84 3.11 17.84"/><line class="cls-1" x1="4.96" y1="17.84" x2="5.51" y2="17.84"/><line class="cls-1" x1="0.5" y1="13.37" x2="0.5" y2="12.82"/><polyline class="cls-1" points="3.8 2.06 2.06 2.06 2.06 3.81"/><polyline class="cls-1" points="0.5 3.11 0.5 0.5 3.11 0.5"/><line class="cls-1" x1="4.96" y1="0.51" x2="5.51" y2="0.51"/><line class="cls-1" x1="0.5" y1="4.97" x2="0.5" y2="5.52"/><path class="cls-1" d="M14.79,12.58v0.66A1.19,1.19,0,0,0,16,14.43h0.66a1.19,1.19,0,0,0,1.15-1.2V9.73L19,9.29A0.28,0.28,0,0,0,19.19,9V8a0.28,0.28,0,0,0-.27-0.29H17.53a1.09,1.09,0,0,1-.94-0.56L15.22,4.69a1.53,1.53,0,0,0-1.34-.8H10a1.52,1.52,0,0,0-1.34.8L7.31,7.2a1.06,1.06,0,0,1-.94.56H5A0.29,0.29,0,0,0,4.71,8V9a0.29,0.29,0,0,0,.19.27L6.12,9.76v3.5A1.19,1.19,0,0,0,7.3,14.45H8a1.19,1.19,0,0,0,1.18-1.19V12.58h5.64Z" transform="translate(-0.48 -0.48)"/></g></svg>