<svg id="Layer_1" data-name="Layer 1" xmlns="http://www.w3.org/2000/svg" viewBox="0 0 22.92 15.76"><defs><style>.cls-1{fill:#ea5168;}.cls-2{fill:none;stroke:#ea5168;stroke-linecap:round;stroke-linejoin:round;}</style></defs><title>sat-nav</title><g id="Icon"><path class="cls-1" d="M12.12,3.88a3,3,0,0,1,3,3c0,1.06-1.55,3.62-3,5.59-1.42-2-3-4.53-3-5.59a3,3,0,0,1,3-3m0-1a4,4,0,0,0-4,4c0,2.19,4,7.26,4,7.26s4-5.07,4-7.26A4,4,0,0,0,12.12,2.88Z" transform="translate(-0.66 -0.62)"/><path class="cls-1" d="M12.12,6.21a0.65,0.65,0,1,1-.64.66h0a0.65,0.65,0,0,1,.64-0.65m0-1a1.65,1.65,0,1,0,1.65,1.65h0a1.64,1.64,0,0,0-1.63-1.65h0Z" transform="translate(-0.66 -0.62)"/><path class="cls-1" d="M20.58,1.62a2,2,0,0,1,2,2v9.76a2,2,0,0,1-2,2H3.66a2,2,0,0,1-2-2V3.62a2,2,0,0,1,2-2H20.58m0-1H3.66a3,3,0,0,0-3,3v9.76a3,3,0,0,0,3,3H20.58a3,3,0,0,0,3-3V3.62A3,3,0,0,0,20.58.62Z" transform="translate(-0.66 -0.62)"/><line class="cls-2" x1="3.61" y1="15.05" x2="3.61" y2="0.82"/><line class="cls-2" x1="19.31" y1="0.82" x2="19.31" y2="15.05"/></g></svg>