<svg id="Layer_1" data-name="Layer 1" xmlns="http://www.w3.org/2000/svg" viewBox="0 0 19.85 19.06"><defs><style>.cls-1{fill:none;stroke:#ea5168;stroke-linecap:round;stroke-linejoin:round;}</style></defs><title>auto</title><g id="Icon"><rect class="cls-1" x="9.76" y="0.5" width="9.59" height="18.06" rx="1.76" ry="1.76"/><polyline class="cls-1" points="13.63 3.29 14.58 4.24 15.48 3.34"/><polyline class="cls-1" points="13.63 7.28 14.58 8.23 15.48 7.33"/><polyline class="cls-1" points="13.63 11.27 14.58 12.22 15.48 11.32"/><polyline class="cls-1" points="13.63 15.26 14.58 16.21 15.48 15.31"/><path class="cls-1" d="M10,12.26H6.24A2.56,2.56,0,0,1,3.69,9.69V6.78" transform="translate(-0.25 -0.41)"/><path class="cls-1" d="M6.63,3.88A2.94,2.94,0,1,0,3.68,6.8h0A2.94,2.94,0,0,0,6.63,3.88Z" transform="translate(-0.25 -0.41)"/></g></svg>