<svg id="Layer_1" data-name="Layer 1" xmlns="http://www.w3.org/2000/svg" viewBox="0 0 16.96 19.02"><defs><style>.cls-1{fill:none;}.cls-1,.cls-2{stroke:#ea5168;stroke-linecap:round;stroke-linejoin:round;}.cls-2{fill:#ea5068;}</style></defs><title>LeaseLoCo-Icons_4WD</title><g id="Icon"><rect class="cls-1" x="6.85" y="14.6" width="3.25" height="3.25" rx="0.36" ry="0.36"/><path class="cls-1" d="M8.67,13.51h0a0.75,0.75,0,0,0-.75.75h0v0.53h1.5V14.26A0.76,0.76,0,0,0,8.67,13.51Z" transform="translate(-0.19 -0.18)"/><polyline class="cls-1" points="8.48 6.12 8.48 7.28 8.48 10.77 8.48 13.32"/><line class="cls-1" x1="10.11" y1="16.23" x2="13.17" y2="16.23"/><line class="cls-1" x1="6.85" y1="16.23" x2="3.79" y2="16.23"/><line class="cls-1" x1="3.79" y1="17.43" x2="3.79" y2="15.04"/><line class="cls-1" x1="13.17" y1="17.43" x2="13.17" y2="15.04"/><rect class="cls-2" x="14.32" y="13.94" width="2.14" height="4.58" rx="0.36" ry="0.36"/><rect class="cls-2" x="0.5" y="13.94" width="2.14" height="4.58" rx="0.36" ry="0.36"/><line class="cls-1" x1="8.48" y1="17.86" x2="8.48" y2="16.23"/><rect class="cls-1" x="6.86" y="1.17" width="3.25" height="3.25" rx="0.36" ry="0.36"/><path class="cls-1" d="M8.67,5.89h0a0.75,0.75,0,0,0,.75-0.75V4.63H7.92V5.15a0.74,0.74,0,0,0,.75.73h0Z" transform="translate(-0.19 -0.18)"/><line class="cls-1" x1="6.85" y1="2.79" x2="3.79" y2="2.79"/><line class="cls-1" x1="10.11" y1="2.79" x2="13.17" y2="2.79"/><line class="cls-1" x1="13.17" y1="1.6" x2="13.17" y2="3.99"/><line class="cls-1" x1="3.79" y1="1.6" x2="3.79" y2="3.99"/><rect class="cls-2" x="0.5" y="0.51" width="2.14" height="4.58" rx="0.36" ry="0.36"/><rect class="cls-2" x="14.32" y="0.5" width="2.14" height="4.58" rx="0.36" ry="0.36"/><line class="cls-1" x1="8.48" y1="1.17" x2="8.48" y2="2.79"/></g></svg>