<svg id="Layer_1" data-name="Layer 1" xmlns="http://www.w3.org/2000/svg" viewBox="0 0 22.92 14.55"><defs><style>.cls-1{fill:#ea5168;}.cls-2{fill:none;stroke:#ea5168;stroke-linecap:round;stroke-linejoin:round;}</style></defs><title>manual</title><g id="Icon"><path class="cls-1" d="M3.1,1.36V3.08H1.38V1.36H3.1m0.57-1H0.86A0.48,0.48,0,0,0,.38.84h0V3.56A0.47,0.47,0,0,0,.84,4H3.67A0.48,0.48,0,0,0,4.1,3.56V0.84A0.49,0.49,0,0,0,3.67.36Z" transform="translate(-0.38 -0.36)"/><path class="cls-1" d="M3.1,12.18v1.73H1.38V12.18H3.1m0.52-1H0.86a0.48,0.48,0,0,0-.48.48h0v2.75a0.48,0.48,0,0,0,.47.49H3.67a0.49,0.49,0,0,0,.48-0.49V11.67a0.49,0.49,0,0,0-.48-0.49h0Z" transform="translate(-0.38 -0.36)"/><path class="cls-1" d="M9.5,1.36V3.08H7.78V1.36H9.5m0.52-1H7.26a0.48,0.48,0,0,0-.48.48V3.56A0.47,0.47,0,0,0,7.24,4H10a0.48,0.48,0,0,0,.48-0.48V0.84A0.49,0.49,0,0,0,10,.36Z" transform="translate(-0.38 -0.36)"/><path class="cls-1" d="M9.5,12.18v1.73H7.78V12.18H9.5m0.52-1H7.26a0.48,0.48,0,0,0-.48.48h0v2.75a0.48,0.48,0,0,0,.47.49H10a0.49,0.49,0,0,0,.48-0.49V11.67A0.49,0.49,0,0,0,10,11.18Z" transform="translate(-0.38 -0.36)"/><path class="cls-1" d="M15.9,1.36V3.08H14.18V1.36H15.9m0.52-1H13.67a0.48,0.48,0,0,0-.48.48V3.56a0.47,0.47,0,0,0,.46.48h2.78a0.48,0.48,0,0,0,.47-0.48V0.84A0.49,0.49,0,0,0,16.42.36Z" transform="translate(-0.38 -0.36)"/><path class="cls-1" d="M15.9,12.18v1.73H14.18V12.18H15.9m0.52-1H13.67a0.48,0.48,0,0,0-.48.48h0v2.75a0.48,0.48,0,0,0,.47.49h2.77a0.49,0.49,0,0,0,.48-0.49V11.67a0.49,0.49,0,0,0-.48-0.49h0Z" transform="translate(-0.38 -0.36)"/><path class="cls-1" d="M22.3,12.18v1.73H20.58V12.18H22.3m0.52-1H20.06a0.48,0.48,0,0,0-.48.48h0v2.75a0.48,0.48,0,0,0,.47.49h2.77a0.49,0.49,0,0,0,.48-0.49V11.67A0.49,0.49,0,0,0,22.82,11.18Z" transform="translate(-0.38 -0.36)"/><polyline class="cls-2" points="1.86 7.1 21.06 7.1 21.06 10.82"/><line class="cls-2" x1="1.86" y1="3.72" x2="1.86" y2="10.82"/><line class="cls-2" x1="8.26" y1="3.72" x2="8.26" y2="10.82"/><line class="cls-2" x1="14.66" y1="3.72" x2="14.66" y2="10.82"/></g></svg>