<svg id="Layer_1" data-name="Layer 1" xmlns="http://www.w3.org/2000/svg" viewBox="0 0 16.96 19.1"><defs><style>.cls-1{fill:none;}.cls-1,.cls-2{stroke:#ea5168;stroke-linecap:round;stroke-linejoin:round;}.cls-2{fill:#ea5068;}</style></defs><title>rwd</title><g id="Icon"><path class="cls-1" d="M10.19,3.66a1,1,0,1,0-1,1A1,1,0,0,0,10.19,3.66Z" transform="translate(-0.7 -0.86)"/><line class="cls-1" x1="9.49" y1="2.8" x2="13.17" y2="2.8"/><line class="cls-1" x1="7.47" y1="2.8" x2="3.79" y2="2.8"/><line class="cls-1" x1="3.79" y1="3.99" x2="3.79" y2="1.6"/><line class="cls-1" x1="13.17" y1="3.99" x2="13.17" y2="1.6"/><rect class="cls-1" x="6.85" y="14.68" width="3.25" height="3.25" rx="0.36" ry="0.36"/><path class="cls-1" d="M9.18,14.26h0a0.75,0.75,0,0,0-.75.75v0.53h1.5V15A0.76,0.76,0,0,0,9.18,14.26Z" transform="translate(-0.7 -0.86)"/><polyline class="cls-1" points="8.48 3.8 8.48 7.35 8.48 9.85 8.48 13.4"/><rect class="cls-1" x="14.32" y="0.51" width="2.14" height="4.58" rx="0.36" ry="0.36"/><rect class="cls-1" x="0.5" y="0.5" width="2.14" height="4.58" rx="0.36" ry="0.36"/><line class="cls-1" x1="10.11" y1="16.31" x2="13.17" y2="16.31"/><line class="cls-1" x1="6.85" y1="16.31" x2="3.79" y2="16.31"/><line class="cls-1" x1="3.79" y1="17.51" x2="3.79" y2="15.11"/><line class="cls-1" x1="13.17" y1="17.51" x2="13.17" y2="15.11"/><rect class="cls-2" x="14.32" y="14.02" width="2.14" height="4.58" rx="0.36" ry="0.36"/><rect class="cls-2" x="0.5" y="14.02" width="2.14" height="4.58" rx="0.36" ry="0.36"/><line class="cls-1" x1="8.48" y1="17.94" x2="8.48" y2="16.31"/></g></svg>
